<svg xmlns="http://www.w3.org/2000/svg" xmlns:xlink="http://www.w3.org/1999/xlink" width="1080" zoomAndPan="magnify" viewBox="0 0 810 809.999993" height="1080" preserveAspectRatio="xMidYMid meet" version="1.0"><defs><g/><clipPath id="a74c8b1904"><rect x="0" width="454" y="0" height="91"/></clipPath><clipPath id="1f26526405"><rect x="0" width="247" y="0" height="118"/></clipPath></defs><rect x="-81" width="972" fill="#ffffff" y="-80.999999" height="971.999992" fill-opacity="1"/><rect x="-81" width="972" fill="#ffffff" y="-80.999999" height="971.999992" fill-opacity="1"/><path stroke-linecap="round" transform="matrix(0.735, 0, 0, 0.735, 554.821968, 317.510894)" fill="none" stroke-linejoin="round" d="M 41.999238 12.001548 C 39.868073 12.490494 37.790055 13.160137 35.770497 13.999848 C 33.750939 14.844873 31.816415 15.849338 29.96161 17.018555 C 28.11212 18.187773 26.368923 19.500486 24.742647 20.962008 C 23.111057 22.42353 21.617647 24.007289 20.251788 25.723913 C 18.891244 27.435223 17.679509 29.252825 16.621899 31.16609 C 15.564288 33.08467 14.676746 35.077655 13.953956 37.145045 C 13.231167 39.207119 12.689075 41.322341 12.322366 43.480079 C 11.955657 45.637817 11.77496 47.811499 11.77496 50.001125 C 11.77496 52.190751 11.955657 54.364433 12.322366 56.522171 C 12.689075 58.67991 13.231167 60.789816 13.953956 62.857206 C 14.676746 64.924595 15.564288 66.91758 16.621899 68.830845 C 17.679509 70.749425 18.891244 72.561713 20.251788 74.278337 C 21.617647 75.989647 23.111057 77.57872 24.742647 79.040242 C 26.368923 80.501764 28.11212 81.814477 29.96161 82.983695 C 31.816415 84.152913 33.750939 85.157377 35.770497 85.997088 C 37.790055 86.842113 39.868073 87.506442 41.999238 88.000702 " stroke="#000000" stroke-width="11" stroke-opacity="1" stroke-miterlimit="4"/><path stroke-linecap="round" transform="matrix(0.735, 0, 0, 0.735, 554.821968, 317.510894)" fill="none" stroke-linejoin="round" d="M 59.999877 20.000061 C 61.51986 20.563411 62.992012 21.243683 64.411017 22.030248 C 65.830022 22.822127 67.179937 23.70967 68.466076 24.703505 C 69.746901 25.702655 70.948007 26.786838 72.069393 27.961371 C 73.185464 29.141218 74.205873 30.395469 75.135932 31.729441 C 76.060677 33.063412 76.884444 34.455844 77.596604 35.917366 C 78.314079 37.373573 78.914631 38.877613 79.398262 40.424169 C 79.881893 41.97604 80.248603 43.554484 80.49839 45.159501 C 80.742863 46.764518 80.865099 48.37485 80.865099 50.001125 C 80.865099 51.622086 80.742863 53.237732 80.49839 54.84275 C 80.248603 56.447767 79.881893 58.026211 79.398262 59.572767 C 78.914631 61.124638 78.314079 62.628677 77.596604 64.084884 C 76.884444 65.541092 76.060677 66.938839 75.135932 68.27281 C 74.205873 69.601466 73.185464 70.861033 72.069393 72.035565 C 70.948007 73.215412 69.746901 74.299596 68.466076 75.293431 C 67.179937 76.287266 65.830022 77.180123 64.411017 77.966688 C 62.992012 78.758567 61.51986 79.433525 59.999877 80.00219 " stroke="#000000" stroke-width="7" stroke-opacity="1" stroke-miterlimit="4"/><path stroke-linecap="round" transform="matrix(0.735, 0, 0, 0.735, 554.821968, 317.510894)" fill="none" stroke-linejoin="round" d="M 42.998388 68.001764 C 38.00264 55.002188 47.999451 46.998361 42.998388 33.998786 " stroke="#000000" stroke-width="3.2" stroke-opacity="1" stroke-miterlimit="4"/><path stroke-linecap="round" transform="matrix(0.735, 0, 0, 0.735, 554.821968, 317.510894)" fill="none" stroke-linejoin="round" d="M 42.998388 30.002187 L 42.998388 30.007502 " stroke="#000000" stroke-width="4.4" stroke-opacity="1" stroke-miterlimit="4"/><path stroke-linecap="round" transform="matrix(0.735, 0, 0, 0.735, 554.821968, 317.510894)" fill="none" stroke-linejoin="round" d="M 55.997964 70.000063 C 51.002215 56.001338 60.999027 47.997511 55.997964 34.997936 " stroke="#000000" stroke-width="4.6" stroke-opacity="1" stroke-miterlimit="4"/><path stroke-linecap="round" transform="matrix(0.735, 0, 0, 0.735, 554.821968, 317.510894)" fill="none" stroke-linejoin="round" d="M 55.997964 30.002187 L 55.997964 30.007502 " stroke="#000000" stroke-width="6" stroke-opacity="1" stroke-miterlimit="4"/><g transform="matrix(1, 0, 0, 1, 107, 319)"><g clip-path="url(#a74c8b1904)"><g fill="#000000" fill-opacity="1"><g transform="translate(1.182097, 64.639639)"><g><path d="M 38.328125 -59.421875 L 38.328125 -47.546875 L 17.859375 -47.546875 L 17.859375 -35.734375 L 37.453125 -35.734375 L 37.453125 -23.84375 L 17.859375 -23.84375 L 17.859375 -11.890625 L 38.328125 -11.890625 L 38.328125 0 L 4.328125 0 L 4.328125 -59.421875 Z M 38.328125 -59.421875 "/></g></g></g><g fill="#000000" fill-opacity="1"><g transform="translate(42.958219, 64.639639)"><g><path d="M 17.859375 -36.875 L 17.859375 0 L 4.328125 0 L 4.328125 -59.421875 L 17.859375 -59.421875 L 41.484375 -22.546875 L 41.640625 -22.546875 L 41.640625 -59.421875 L 55.171875 -59.421875 L 55.171875 0 L 41.640625 0 L 18.015625 -36.875 Z M 17.859375 -36.875 "/></g></g></g><g fill="#000000" fill-opacity="1"><g transform="translate(102.453178, 64.639639)"><g/></g></g><g fill="#000000" fill-opacity="1"><g transform="translate(122.116758, 64.639639)"><g><path d="M 4.328125 -59.421875 L 26 -59.421875 C 32.050781 -59.421875 36.945312 -57.859375 40.6875 -54.734375 C 44.4375 -51.617188 46.3125 -47.082031 46.3125 -41.125 C 46.3125 -35.175781 44.414062 -30.507812 40.625 -27.125 C 36.832031 -23.738281 31.957031 -22.046875 26 -22.046875 L 17.859375 -22.046875 L 17.859375 0 L 4.328125 0 Z M 17.859375 -32.84375 L 21.6875 -32.84375 C 24.707031 -32.84375 27.1875 -33.453125 29.125 -34.671875 C 31.070312 -35.898438 32.046875 -37.910156 32.046875 -40.703125 C 32.046875 -43.535156 31.070312 -45.5625 29.125 -46.78125 C 27.1875 -48.007812 24.707031 -48.625 21.6875 -48.625 L 17.859375 -48.625 Z M 17.859375 -32.84375 "/></g></g></g><g fill="#000000" fill-opacity="1"><g transform="translate(165.477051, 64.639639)"><g><path d="M 34.5 -59.421875 L 58.484375 0 L 43.9375 0 L 39.546875 -11.890625 L 16.921875 -11.890625 L 12.53125 0 L -2.015625 0 L 21.96875 -59.421875 Z M 34.9375 -23.765625 L 28.3125 -41.0625 L 28.171875 -41.0625 L 21.53125 -23.765625 Z M 34.9375 -23.765625 "/></g></g></g><g fill="#000000" fill-opacity="1"><g transform="translate(221.946845, 64.639639)"><g><path d="M 4.328125 -59.421875 L 25.578125 -59.421875 C 31.285156 -59.421875 35.941406 -57.894531 39.546875 -54.84375 C 43.148438 -51.800781 44.953125 -47.445312 44.953125 -41.78125 C 44.953125 -37.40625 43.859375 -33.738281 41.671875 -30.78125 C 39.484375 -27.832031 36.519531 -25.757812 32.78125 -24.5625 L 53.234375 0 L 36.015625 0 L 17.859375 -23.484375 L 17.859375 0 L 4.328125 0 Z M 17.859375 -33.0625 L 19.453125 -33.0625 C 20.703125 -33.0625 21.757812 -33.082031 22.625 -33.125 C 23.488281 -33.175781 24.472656 -33.347656 25.578125 -33.640625 C 26.679688 -33.929688 27.566406 -34.335938 28.234375 -34.859375 C 28.910156 -35.390625 29.488281 -36.160156 29.96875 -37.171875 C 30.445312 -38.179688 30.6875 -39.40625 30.6875 -40.84375 C 30.6875 -42.28125 30.445312 -43.503906 29.96875 -44.515625 C 29.488281 -45.523438 28.910156 -46.289062 28.234375 -46.8125 C 27.566406 -47.34375 26.679688 -47.753906 25.578125 -48.046875 C 24.472656 -48.335938 23.488281 -48.503906 22.625 -48.546875 C 21.757812 -48.597656 20.703125 -48.625 19.453125 -48.625 L 17.859375 -48.625 Z M 17.859375 -33.0625 "/></g></g></g><g fill="#000000" fill-opacity="1"><g transform="translate(273.518742, 64.639639)"><g><path d="M 34.5 -59.421875 L 58.484375 0 L 43.9375 0 L 39.546875 -11.890625 L 16.921875 -11.890625 L 12.53125 0 L -2.015625 0 L 21.96875 -59.421875 Z M 34.9375 -23.765625 L 28.3125 -41.0625 L 28.171875 -41.0625 L 21.53125 -23.765625 Z M 34.9375 -23.765625 "/></g></g></g><g fill="#000000" fill-opacity="1"><g transform="translate(329.98852, 64.639639)"><g><path d="M 17.859375 -59.421875 L 17.859375 -11.890625 L 38.328125 -11.890625 L 38.328125 0 L 4.328125 0 L 4.328125 -59.421875 Z M 17.859375 -59.421875 "/></g></g></g><g fill="#000000" fill-opacity="1"><g transform="translate(370.684235, 64.639639)"><g><path d="M 38.328125 -59.421875 L 38.328125 -47.546875 L 17.859375 -47.546875 L 17.859375 -35.734375 L 37.453125 -35.734375 L 37.453125 -23.84375 L 17.859375 -23.84375 L 17.859375 -11.890625 L 38.328125 -11.890625 L 38.328125 0 L 4.328125 0 L 4.328125 -59.421875 Z M 38.328125 -59.421875 "/></g></g></g><g fill="#000000" fill-opacity="1"><g transform="translate(412.460357, 64.639639)"><g><path d="M 17.859375 -59.421875 L 17.859375 -11.890625 L 38.328125 -11.890625 L 38.328125 0 L 4.328125 0 L 4.328125 -59.421875 Z M 17.859375 -59.421875 "/></g></g></g></g></g><g transform="matrix(1, 0, 0, 1, 466, 378)"><g clip-path="url(#1f26526405)"><g fill="#000000" fill-opacity="1"><g transform="translate(0.9929, 75.472901)"><g><path d="M 16.015625 -1.5625 C 16.015625 -0.769531 16.410156 -0.375 17.203125 -0.375 C 18.003906 -0.375 19.082031 -1.21875 20.4375 -2.90625 C 21.789062 -4.59375 22.710938 -5.40625 23.203125 -5.34375 C 23.566406 -4.96875 23.164062 -4.171875 22 -2.953125 C 21.875 -2.828125 21.65625 -2.503906 21.34375 -1.984375 C 21.039062 -1.460938 20.78125 -1.046875 20.5625 -0.734375 C 20.351562 -0.429688 20.066406 -0.0351562 19.703125 0.453125 C 19.335938 0.953125 19 1.351562 18.6875 1.65625 C 18.382812 1.96875 18.046875 2.273438 17.671875 2.578125 C 16.941406 3.191406 16.300781 3.5 15.75 3.5 C 15.195312 3.5 14.441406 3.390625 13.484375 3.171875 C 12.535156 2.960938 12.046875 2.734375 12.015625 2.484375 C 11.984375 2.242188 11.96875 2.03125 11.96875 1.84375 C 11.96875 -1.351562 14.578125 -7.890625 19.796875 -17.765625 C 18.992188 -17.765625 18.363281 -17.796875 17.90625 -17.859375 C 17.445312 -17.921875 17.171875 -18.164062 17.078125 -18.59375 C 16.984375 -19.019531 17.101562 -19.265625 17.4375 -19.328125 C 17.78125 -19.390625 18.132812 -19.390625 18.5 -19.328125 C 18.875 -19.265625 19.519531 -19.234375 20.4375 -19.234375 C 23.570312 -24.878906 25.441406 -28.332031 26.046875 -29.59375 C 26.660156 -30.851562 26.96875 -31.757812 26.96875 -32.3125 C 26.96875 -32.863281 26.9375 -33.296875 26.875 -33.609375 C 27.125 -35.328125 28.613281 -37.582031 31.34375 -40.375 C 34.070312 -43.164062 36.546875 -44.5625 38.765625 -44.5625 C 39.492188 -44.5625 40.488281 -44.285156 41.75 -43.734375 C 43.007812 -43.179688 43.726562 -42.550781 43.90625 -41.84375 C 44.09375 -41.132812 44.140625 -40.734375 44.046875 -40.640625 C 43.953125 -40.546875 43.753906 -40.5625 43.453125 -40.6875 C 43.148438 -40.8125 42.96875 -40.875 42.90625 -40.875 C 38.476562 -40.875 32.1875 -33.660156 24.03125 -19.234375 C 30.71875 -19.546875 37.570312 -20.882812 44.59375 -23.25 C 51.625 -25.613281 57.015625 -28.726562 60.765625 -32.59375 C 62.910156 -34.675781 63.984375 -36.882812 63.984375 -39.21875 C 63.984375 -46.09375 56.957031 -49.53125 42.90625 -49.53125 C 34.863281 -49.53125 27.191406 -48.300781 19.890625 -45.84375 C 16.078125 -44.5 12.835938 -42.691406 10.171875 -40.421875 C 7.503906 -38.148438 5.925781 -35.570312 5.4375 -32.6875 C 5.375 -32.375 5.34375 -31.972656 5.34375 -31.484375 C 5.34375 -30.992188 5.539062 -30.394531 5.9375 -29.6875 C 6.332031 -28.976562 6.804688 -28.441406 7.359375 -28.078125 C 7.910156 -27.710938 8.691406 -27.28125 9.703125 -26.78125 C 10.722656 -26.289062 11.398438 -25.921875 11.734375 -25.671875 C 12.078125 -25.429688 12.15625 -25.171875 11.96875 -24.890625 C 11.78125 -24.617188 11.378906 -24.546875 10.765625 -24.671875 C 8.867188 -24.984375 7.09375 -25.9375 5.4375 -27.53125 C 3.78125 -29.125 2.953125 -30.84375 2.953125 -32.6875 C 2.953125 -33.238281 3.007812 -33.789062 3.125 -34.34375 C 3.007812 -35.132812 2.953125 -35.625 2.953125 -35.8125 C 3.804688 -40.414062 8.316406 -44.804688 16.484375 -48.984375 C 22.921875 -51.984375 30.53125 -53.484375 39.3125 -53.484375 C 44.707031 -53.484375 50.046875 -52.75 55.328125 -51.28125 C 58.890625 -50.050781 61.585938 -48.300781 63.421875 -46.03125 C 65.265625 -43.757812 66.1875 -41.457031 66.1875 -39.125 C 66.1875 -35.5625 64.773438 -32.414062 61.953125 -29.6875 C 59.128906 -26.957031 55.96875 -24.859375 52.46875 -23.390625 C 44.1875 -19.828125 34.429688 -17.921875 23.203125 -17.671875 C 20.804688 -13.253906 19.007812 -9.664062 17.8125 -6.90625 C 16.613281 -4.144531 16.015625 -2.363281 16.015625 -1.5625 Z M 16.015625 -1.5625 "/></g></g></g><g fill="#000000" fill-opacity="1"><g transform="translate(50.613714, 75.472901)"><g><path d="M 22.734375 -10.125 C 23.835938 -12.394531 24.390625 -14.144531 24.390625 -15.375 C 24.390625 -16.601562 24.25 -17.566406 23.96875 -18.265625 C 23.695312 -18.972656 23.820312 -19.570312 24.34375 -20.0625 C 24.875 -20.5625 25.535156 -20.75 26.328125 -20.625 C 27.554688 -20.3125 28.171875 -18.925781 28.171875 -16.46875 C 28.171875 -14.019531 26.726562 -10.800781 23.84375 -6.8125 C 23.90625 -5.15625 24.765625 -4.328125 26.421875 -4.328125 C 28.078125 -4.328125 30.59375 -6.109375 33.96875 -9.671875 C 35.5625 -11.503906 36.554688 -12.695312 36.953125 -13.25 C 37.359375 -13.800781 37.710938 -14 38.015625 -13.84375 C 38.328125 -13.695312 38.484375 -13.5625 38.484375 -13.4375 C 38.484375 -12.820312 37.378906 -11.226562 35.171875 -8.65625 C 31.671875 -4.351562 28.570312 -2.203125 25.875 -2.203125 C 24.09375 -2.203125 22.832031 -2.972656 22.09375 -4.515625 C 20.863281 -3.222656 19.664062 -2.023438 18.5 -0.921875 C 16.113281 1.105469 13.445312 2.125 10.5 2.125 C 8.84375 2.125 7.460938 1.722656 6.359375 0.921875 C 4.203125 -0.367188 3.125 -2.671875 3.125 -5.984375 C 3.125 -9.609375 4.351562 -13.289062 6.8125 -17.03125 C 8.226562 -19.238281 9.882812 -21.171875 11.78125 -22.828125 C 14.789062 -25.472656 17.644531 -26.796875 20.34375 -26.796875 C 21.019531 -26.796875 21.664062 -26.703125 22.28125 -26.515625 C 24.125 -25.898438 25.046875 -24.734375 25.046875 -23.015625 C 25.046875 -21.597656 24.675781 -20.890625 23.9375 -20.890625 C 23.625 -21.015625 23.46875 -21.476562 23.46875 -22.28125 C 23.46875 -23.382812 22.859375 -23.9375 21.640625 -23.9375 C 19.484375 -23.9375 16.71875 -21.972656 13.34375 -18.046875 C 9.96875 -14.117188 7.941406 -10.160156 7.265625 -6.171875 C 7.148438 -5.492188 7.09375 -4.738281 7.09375 -3.90625 C 7.09375 -3.082031 7.367188 -2.132812 7.921875 -1.0625 C 8.472656 0.0078125 9.5 0.546875 11 0.546875 C 12.5 0.546875 14.140625 -0.125 15.921875 -1.46875 C 17.703125 -2.820312 19.300781 -4.539062 20.71875 -6.625 L 20.4375 -7.1875 C 20.1875 -8.164062 20.304688 -8.960938 20.796875 -9.578125 C 21.296875 -10.191406 21.941406 -10.375 22.734375 -10.125 Z M 22.734375 -10.125 "/></g></g></g><g fill="#000000" fill-opacity="1"><g transform="translate(82.927082, 75.472901)"><g><path d="M 7.78125 -16.796875 C 10.507812 -19.222656 13.347656 -21.296875 16.296875 -23.015625 C 19.242188 -24.734375 21.578125 -25.804688 23.296875 -26.234375 C 25.015625 -26.660156 26.703125 -26.875 28.359375 -26.875 C 30.015625 -26.875 31.578125 -26.320312 33.046875 -25.21875 C 41.453125 -44.738281 49.492188 -54.5 57.171875 -54.5 C 59.742188 -54.5 61.492188 -53.765625 62.421875 -52.296875 C 62.847656 -51.554688 63.0625 -50.910156 63.0625 -50.359375 C 63.0625 -48.828125 62.398438 -46.878906 61.078125 -44.515625 C 59.765625 -42.148438 57.722656 -39.554688 54.953125 -36.734375 C 52.191406 -33.910156 48.234375 -30.425781 43.078125 -26.28125 C 37.929688 -22.132812 35.078125 -19.816406 34.515625 -19.328125 C 32.554688 -14.785156 31.023438 -10.394531 29.921875 -6.15625 C 28.816406 -1.925781 28.265625 1.226562 28.265625 3.3125 C 28.265625 5.394531 28.632812 7.050781 29.375 8.28125 C 29.738281 9.082031 30.285156 9.554688 31.015625 9.703125 C 31.753906 9.859375 32.382812 9.769531 32.90625 9.4375 C 33.425781 9.101562 33.820312 8.8125 34.09375 8.5625 C 34.375 8.3125 34.710938 8.078125 35.109375 7.859375 C 35.515625 7.648438 35.804688 7.609375 35.984375 7.734375 C 36.171875 7.859375 36.144531 8.195312 35.90625 8.75 C 35.414062 9.363281 34.953125 9.882812 34.515625 10.3125 C 33.535156 10.988281 32.382812 11.328125 31.0625 11.328125 C 29.75 11.328125 28.878906 11.296875 28.453125 11.234375 C 25.503906 10.742188 24.03125 8.59375 24.03125 4.78125 C 24.03125 1.101562 24.519531 -2.300781 25.5 -5.4375 C 26.851562 -9.726562 28.082031 -13.285156 29.1875 -16.109375 C 19.363281 -4.691406 12.394531 1.015625 8.28125 1.015625 C 7.300781 1.015625 6.242188 0.722656 5.109375 0.140625 C 3.972656 -0.441406 3.003906 -1.269531 2.203125 -2.34375 C 1.410156 -3.414062 1.015625 -4.566406 1.015625 -5.796875 C 1.015625 -7.023438 1.289062 -8.191406 1.84375 -9.296875 C 3.070312 -11.878906 5.050781 -14.378906 7.78125 -16.796875 Z M 32.3125 -23.75 C 31.570312 -24.113281 30.28125 -24.296875 28.4375 -24.296875 C 26.601562 -24.296875 24.226562 -23.546875 21.3125 -22.046875 C 18.394531 -20.546875 15.648438 -18.660156 13.078125 -16.390625 C 10.921875 -14.359375 9.03125 -12.066406 7.40625 -9.515625 C 5.78125 -6.972656 4.96875 -5.117188 4.96875 -3.953125 C 4.96875 -1.679688 5.613281 -0.546875 6.90625 -0.546875 C 8.195312 -0.546875 10.160156 -1.59375 12.796875 -3.6875 C 19.609375 -9.269531 25.6875 -14.914062 31.03125 -20.625 Z M 59.28125 -46.953125 C 60.082031 -48.421875 60.484375 -49.660156 60.484375 -50.671875 C 60.484375 -51.691406 60.035156 -52.203125 59.140625 -52.203125 C 58.253906 -52.203125 57.078125 -51.648438 55.609375 -50.546875 C 48.859375 -45.390625 42.75 -36.765625 37.28125 -24.671875 C 41.269531 -27.253906 45.441406 -30.691406 49.796875 -34.984375 C 54.160156 -39.273438 57.320312 -43.265625 59.28125 -46.953125 Z M 59.28125 -46.953125 "/></g></g></g><g fill="#000000" fill-opacity="1"><g transform="translate(117.449899, 75.472901)"><g><path d="M 26.796875 -20.25 L 27.25 -22.09375 C 27.25 -23.320312 26.789062 -23.9375 25.875 -23.9375 C 23.351562 -23.9375 19.910156 -21.972656 15.546875 -18.046875 C 11.191406 -14.117188 8.429688 -10.160156 7.265625 -6.171875 C 6.960938 -5.128906 6.8125 -4.191406 6.8125 -3.359375 C 6.8125 -2.535156 6.992188 -1.84375 7.359375 -1.28125 C 8.097656 -0.175781 9.234375 0.375 10.765625 0.375 C 12.304688 0.375 13.96875 0.152344 15.75 -0.28125 C 19.675781 -1.382812 22.941406 -2.960938 25.546875 -5.015625 C 28.148438 -7.066406 30.894531 -9.9375 33.78125 -13.625 C 34.03125 -13.925781 34.320312 -14.015625 34.65625 -13.890625 C 35 -13.773438 35.171875 -13.609375 35.171875 -13.390625 C 35.171875 -13.179688 35.078125 -12.859375 34.890625 -12.421875 C 31.941406 -8.429688 28.859375 -5.191406 25.640625 -2.703125 C 22.421875 -0.222656 18.691406 1.382812 14.453125 2.125 C 13.222656 2.300781 12.085938 2.390625 11.046875 2.390625 C 8.035156 2.390625 5.75 1.648438 4.1875 0.171875 C 2.625 -1.296875 1.84375 -2.914062 1.84375 -4.6875 C 1.84375 -6.46875 2.269531 -8.40625 3.125 -10.5 C 4.664062 -14 7.953125 -17.585938 12.984375 -21.265625 C 18.015625 -24.953125 22.003906 -26.796875 24.953125 -26.796875 C 25.679688 -26.796875 26.382812 -26.703125 27.0625 -26.515625 C 28.78125 -25.898438 29.640625 -24.914062 29.640625 -23.5625 C 29.640625 -22.644531 29.300781 -21.601562 28.625 -20.4375 C 27.957031 -19.269531 27.453125 -18.851562 27.109375 -19.1875 C 26.773438 -19.53125 26.671875 -19.882812 26.796875 -20.25 Z M 26.796875 -20.25 "/></g></g></g><g fill="#000000" fill-opacity="1"><g transform="translate(146.449061, 75.472901)"><g><path d="M 8.28125 1.015625 C 7.300781 1.015625 6.242188 0.722656 5.109375 0.140625 C 3.972656 -0.441406 3.003906 -1.269531 2.203125 -2.34375 C 1.410156 -3.414062 1.015625 -4.566406 1.015625 -5.796875 C 1.015625 -7.023438 1.289062 -8.191406 1.84375 -9.296875 C 3.070312 -11.878906 5.050781 -14.378906 7.78125 -16.796875 C 10.507812 -19.222656 13.347656 -21.296875 16.296875 -23.015625 C 19.242188 -24.734375 21.578125 -25.804688 23.296875 -26.234375 C 25.015625 -26.660156 26.6875 -26.875 28.3125 -26.875 C 29.9375 -26.875 31.332031 -26.457031 32.5 -25.625 C 33.664062 -24.800781 34.25 -23.929688 34.25 -23.015625 C 34.25 -22.710938 34.21875 -22.53125 34.15625 -22.46875 C 34.09375 -22.40625 33.9375 -22.4375 33.6875 -22.5625 C 32.957031 -23.71875 31.441406 -24.296875 29.140625 -24.296875 C 26.835938 -24.296875 24.226562 -23.546875 21.3125 -22.046875 C 18.394531 -20.546875 15.648438 -18.660156 13.078125 -16.390625 C 10.921875 -14.359375 9.03125 -12.066406 7.40625 -9.515625 C 5.78125 -6.972656 4.96875 -5.117188 4.96875 -3.953125 C 4.96875 -1.679688 5.613281 -0.546875 6.90625 -0.546875 C 8.195312 -0.546875 10.160156 -1.59375 12.796875 -3.6875 C 17.148438 -7.363281 20.128906 -10.0625 21.734375 -11.78125 C 27.378906 -17.851562 30.414062 -20.890625 30.84375 -20.890625 C 31.582031 -20.890625 32.472656 -20.675781 33.515625 -20.25 C 34.554688 -19.820312 34.890625 -19.300781 34.515625 -18.6875 C 31.390625 -14.269531 29.550781 -9.820312 29 -5.34375 C 28.9375 -4.789062 28.90625 -4.082031 28.90625 -3.21875 C 28.90625 -2.363281 29.148438 -1.660156 29.640625 -1.109375 C 30.566406 -0.117188 31.828125 -0.0507812 33.421875 -0.90625 C 35.015625 -1.769531 37.238281 -3.488281 40.09375 -6.0625 C 42.945312 -8.644531 45.234375 -11.164062 46.953125 -13.625 C 47.191406 -13.925781 47.460938 -14 47.765625 -13.84375 C 48.078125 -13.695312 48.234375 -13.5625 48.234375 -13.4375 C 48.234375 -12.519531 46.773438 -10.507812 43.859375 -7.40625 C 40.953125 -4.3125 38.726562 -2.210938 37.1875 -1.109375 C 34.300781 1.042969 31.632812 2.125 29.1875 2.125 C 26.851562 2.125 25.285156 0.957031 24.484375 -1.375 C 24.304688 -2.113281 24.21875 -2.941406 24.21875 -3.859375 C 24.21875 -6.628906 24.800781 -9.546875 25.96875 -12.609375 C 25.71875 -12.484375 24.578125 -11.253906 22.546875 -8.921875 C 20.523438 -6.597656 18.175781 -4.359375 15.5 -2.203125 C 12.832031 -0.0546875 10.425781 1.015625 8.28125 1.015625 Z M 8.28125 1.015625 "/></g></g></g><g fill="#000000" fill-opacity="1"><g transform="translate(188.520893, 75.472901)"><g><path d="M 4.609375 0.921875 C 3.804688 1.835938 3.632812 2.570312 4.09375 3.125 C 4.550781 3.675781 5.070312 3.953125 5.65625 3.953125 C 6.238281 3.953125 6.835938 3.863281 7.453125 3.6875 C 10.097656 2.882812 12.660156 1.300781 15.140625 -1.0625 C 17.628906 -3.425781 18.875 -5.832031 18.875 -8.28125 C 18.875 -9.632812 17.367188 -11.109375 14.359375 -12.703125 C 12.953125 -13.441406 12.15625 -13.875 11.96875 -14 C 10.3125 -15.101562 9.269531 -16.207031 8.84375 -17.3125 C 7.976562 -15.832031 6.59375 -13.710938 4.6875 -10.953125 C 4.257812 -10.460938 3.863281 -10.351562 3.5 -10.625 C 3.132812 -10.90625 3.101562 -11.289062 3.40625 -11.78125 C 5.925781 -15.21875 7.582031 -18.101562 8.375 -20.4375 C 8.800781 -23.8125 11.253906 -26.847656 15.734375 -29.546875 C 20.222656 -32.253906 24.304688 -33.609375 27.984375 -33.609375 C 30.316406 -33.609375 31.957031 -33.191406 32.90625 -32.359375 C 33.863281 -31.523438 34.34375 -30.707031 34.34375 -29.90625 C 34.34375 -29.113281 34.109375 -28.195312 33.640625 -27.15625 C 33.179688 -26.113281 32.25 -25.132812 30.84375 -24.21875 C 30.46875 -23.96875 30.160156 -24.023438 29.921875 -24.390625 C 29.796875 -24.765625 30.054688 -25.269531 30.703125 -25.90625 C 31.347656 -26.550781 31.757812 -27.425781 31.9375 -28.53125 C 32.125 -29.644531 31.632812 -30.320312 30.46875 -30.5625 C 30.289062 -30.5625 30.109375 -30.5625 29.921875 -30.5625 C 27.523438 -30.5625 24.53125 -29.671875 20.9375 -27.890625 C 17.351562 -26.109375 14.546875 -23.804688 12.515625 -20.984375 C 11.722656 -19.941406 11.328125 -18.882812 11.328125 -17.8125 C 11.328125 -16.738281 12.0625 -15.773438 13.53125 -14.921875 C 14.144531 -14.546875 15.1875 -13.957031 16.65625 -13.15625 C 18.132812 -12.363281 19.179688 -11.78125 19.796875 -11.40625 C 20.410156 -11.039062 21.144531 -10.457031 22 -9.65625 C 22.863281 -8.863281 23.328125 -8.128906 23.390625 -7.453125 C 23.691406 -5.609375 22.832031 -3.582031 20.8125 -1.375 C 17.925781 1.808594 13.628906 4.050781 7.921875 5.34375 C 6.628906 5.644531 5.320312 5.796875 4 5.796875 C 2.6875 5.796875 1.78125 5.304688 1.28125 4.328125 C 1.101562 4.078125 1.015625 3.691406 1.015625 3.171875 C 1.015625 2.648438 1.503906 1.804688 2.484375 0.640625 C 3.398438 -0.273438 4.875 -1.164062 6.90625 -2.03125 C 7.09375 -2.09375 7.242188 -2.0625 7.359375 -1.9375 C 7.484375 -1.8125 7.515625 -1.65625 7.453125 -1.46875 C 7.390625 -1.289062 7.066406 -1.078125 6.484375 -0.828125 C 5.898438 -0.578125 5.273438 0.00390625 4.609375 0.921875 Z M 4.609375 0.921875 "/></g></g></g><g fill="#000000" fill-opacity="1"><g transform="translate(215.770925, 75.472901)"><g><path d="M 18.40625 -25.78125 C 23.132812 -26.207031 26.003906 -26.421875 27.015625 -26.421875 C 28.035156 -26.421875 28.546875 -26.269531 28.546875 -25.96875 C 28.546875 -25.59375 27.820312 -25.207031 26.375 -24.8125 C 24.9375 -24.414062 21.421875 -23.910156 15.828125 -23.296875 C 15.523438 -22.742188 15.160156 -22.097656 14.734375 -21.359375 C 13.804688 -19.890625 13.3125 -19 13.25 -18.6875 C 9.757812 -11.6875 7.921875 -7.238281 7.734375 -5.34375 C 7.671875 -4.789062 7.640625 -4.082031 7.640625 -3.21875 C 7.640625 -2.363281 7.882812 -1.660156 8.375 -1.109375 C 9.238281 -0.117188 10.46875 -0.0507812 12.0625 -0.90625 C 13.65625 -1.769531 15.878906 -3.488281 18.734375 -6.0625 C 21.585938 -8.644531 23.90625 -11.164062 25.6875 -13.625 C 25.925781 -13.925781 26.234375 -13.988281 26.609375 -13.8125 C 27.523438 -13.382812 25.925781 -10.957031 21.8125 -6.53125 C 17.882812 -2.300781 14.601562 0.300781 11.96875 1.28125 C 10.4375 1.84375 9.144531 2.125 8.09375 2.125 C 5.644531 2.125 4.019531 0.957031 3.21875 -1.375 C 3.09375 -1.8125 3.03125 -2.335938 3.03125 -2.953125 C 3.03125 -5.097656 4.015625 -8.347656 5.984375 -12.703125 C 5.679688 -12.023438 4.484375 -10.488281 2.390625 -8.09375 C 1.835938 -7.488281 1.410156 -7.488281 1.109375 -8.09375 C 1.046875 -8.21875 1.015625 -8.390625 1.015625 -8.609375 C 1.015625 -8.828125 1.132812 -9.085938 1.375 -9.390625 C 4.382812 -13.128906 6.75 -16.289062 8.46875 -18.875 C 8.46875 -18.9375 9.144531 -20.222656 10.5 -22.734375 C 9.882812 -22.617188 9.253906 -22.5625 8.609375 -22.5625 C 7.960938 -22.5625 7.484375 -22.757812 7.171875 -23.15625 C 6.867188 -23.550781 6.84375 -24.023438 7.09375 -24.578125 C 7.519531 -25.554688 9.144531 -26.109375 11.96875 -26.234375 C 12.03125 -26.359375 12.15625 -26.421875 12.34375 -26.421875 L 16.9375 -34.984375 C 17.1875 -35.472656 17.460938 -35.976562 17.765625 -36.5 C 18.078125 -37.019531 18.304688 -37.414062 18.453125 -37.6875 C 18.609375 -37.96875 18.773438 -38.257812 18.953125 -38.5625 C 19.140625 -38.875 19.296875 -39.09375 19.421875 -39.21875 C 19.546875 -39.34375 19.671875 -39.46875 19.796875 -39.59375 C 20.035156 -39.957031 20.753906 -40.140625 21.953125 -40.140625 C 23.148438 -40.140625 23.960938 -39.800781 24.390625 -39.125 C 24.578125 -38.882812 24.671875 -38.472656 24.671875 -37.890625 C 24.671875 -37.304688 24.457031 -36.660156 24.03125 -35.953125 C 23.601562 -35.242188 23.140625 -34.734375 22.640625 -34.421875 C 22.148438 -34.117188 21.816406 -33.785156 21.640625 -33.421875 L 17.21875 -25.6875 Z M 18.40625 -25.78125 "/></g></g></g></g></g></svg>